<?xml version="1.0" encoding="UTF-8"?>
<svg width="900" height="600" viewBox="0 0 900 600" fill="none" xmlns="http://www.w3.org/2000/svg">
  <defs>
    <linearGradient id="bg" x1="0" y1="0" x2="0" y2="1">
      <stop offset="0%" stop-color="#E9F3FF"/>
      <stop offset="100%" stop-color="#FFFFFF"/>
    </linearGradient>
    <linearGradient id="tankGrad" x1="0" y1="0" x2="1" y2="1">
      <stop offset="0%" stop-color="#FAFCFF"/>
      <stop offset="100%" stop-color="#DCEBFF"/>
    </linearGradient>
    <linearGradient id="towerGrad" x1="0" y1="0" x2="0" y2="1">
      <stop offset="0%" stop-color="#0F172A"/>
      <stop offset="100%" stop-color="#1E293B"/>
    </linearGradient>
  </defs>
  <rect width="900" height="600" rx="48" fill="url(#bg)"/>
  <rect x="40" y="240" width="180" height="260" rx="90" fill="url(#tankGrad)" stroke="#B8D1F1" stroke-width="6"/>
  <rect x="70" y="220" width="120" height="40" rx="20" fill="#FFFFFF" stroke="#CBD5E1" stroke-width="4"/>
  <rect x="120" y="190" width="40" height="30" rx="15" fill="#94A3B8" opacity="0.4"/>
  <g opacity="0.95">
    <rect x="260" y="190" width="63" height="260" rx="32" fill="#FFFFFF" stroke="#B8D1F1" stroke-width="4"/>
    <rect x="340" y="190" width="63" height="260" rx="32" fill="#FFFFFF" stroke="#B8D1F1" stroke-width="4"/>
    <rect x="420" y="190" width="63" height="260" rx="32" fill="#FFFFFF" stroke="#B8D1F1" stroke-width="4"/>
    <rect x="500" y="190" width="63" height="260" rx="32" fill="#FFFFFF" stroke="#B8D1F1" stroke-width="4"/>
    <rect x="580" y="190" width="63" height="260" rx="32" fill="#FFFFFF" stroke="#B8D1F1" stroke-width="4"/>
  </g>
  <path d="M280 250H660" stroke="#94A3B8" stroke-width="18" stroke-linecap="round"/>
  <path d="M280 320H660" stroke="#94A3B8" stroke-width="18" stroke-linecap="round" opacity="0.7"/>
  <path d="M280 390H660" stroke="#94A3B8" stroke-width="18" stroke-linecap="round" opacity="0.5"/>
  <rect x="700" y="140" width="130" height="310" rx="28" fill="url(#towerGrad)"/>
  <rect x="730" y="160" width="70" height="90" rx="16" fill="#111827"/>
  <rect x="770" y="182" width="10" height="10" rx="5" fill="#60A5FA"/>
  <rect x="730" y="290" width="70" height="24" rx="12" fill="#111827"/>
  <rect x="730" y="340" width="70" height="18" rx="9" fill="#1E293B"/>
  <rect x="240" y="470" width="460" height="80" rx="40" fill="#ffffff" opacity="0.6"/>
  <circle cx="580" cy="520" r="26" fill="#60A5FA" opacity="0.65"/>
</svg>
